<svg id="svg" version="1.1" xmlns="http://www.w3.org/2000/svg" xmlns:xlink="http://www.w3.org/1999/xlink" width="400" height="225" viewBox="0, 0, 400,225"><g id="svgg"><path id="path0" d="M339.667 192.725 L 339.667 196.451 338.292 196.558 C 337.535 196.617,336.560 196.665,336.125 196.666 L 335.333 196.667 335.333 198.333 L 335.333 200.000 337.500 200.000 L 339.667 200.000 339.668 207.708 C 339.670 218.658,339.966 219.892,342.946 221.361 C 344.620 222.186,348.954 222.239,351.479 221.466 L 352.042 221.294 351.918 220.439 C 351.851 219.968,351.748 219.208,351.689 218.750 L 351.583 217.917 348.917 217.831 C 344.145 217.678,344.343 218.123,344.337 207.542 L 344.333 200.000 348.250 200.000 L 352.167 200.000 352.167 198.167 L 352.167 196.333 348.250 196.333 L 344.333 196.333 344.333 192.667 L 344.333 189.000 342.000 189.000 L 339.667 189.000 339.667 192.725 M291.667 196.103 C 289.949 196.351,289.293 196.548,287.667 197.307 C 286.036 198.069,284.236 200.608,283.725 202.867 C 282.167 209.756,283.343 217.259,286.381 219.815 C 287.497 220.754,288.224 221.119,290.390 221.824 C 291.844 222.297,298.958 222.300,301.167 221.828 C 305.102 220.987,305.096 220.991,304.861 220.063 C 304.771 219.707,304.647 219.053,304.586 218.608 L 304.475 217.800 302.946 217.914 C 302.105 217.976,300.929 218.095,300.333 218.177 C 299.737 218.259,297.990 218.328,296.451 218.330 C 292.174 218.335,290.665 217.843,289.309 216.000 C 288.685 215.153,288.019 213.048,288.006 211.885 L 288.000 211.354 294.708 211.302 L 301.417 211.250 302.364 210.785 C 304.628 209.673,305.669 207.199,305.445 203.463 C 305.357 201.995,304.761 199.841,304.349 199.500 C 304.293 199.454,304.046 199.145,303.799 198.813 C 302.083 196.510,296.892 195.350,291.667 196.103 M315.667 196.138 C 311.722 196.846,310.422 198.508,310.429 202.833 C 310.438 207.885,311.742 208.994,319.750 210.756 C 323.365 211.551,323.905 211.689,325.020 212.103 C 327.619 213.068,328.026 216.328,325.709 217.626 C 324.574 218.261,313.327 218.624,311.567 218.082 C 311.235 217.980,311.213 218.048,311.121 219.446 C 311.068 220.255,310.975 221.043,310.915 221.198 C 310.829 221.420,310.923 221.497,311.361 221.563 C 311.667 221.609,312.517 221.745,313.250 221.865 C 315.730 222.271,325.105 222.160,326.815 221.705 C 329.871 220.892,330.930 219.745,331.435 216.700 C 331.893 213.947,331.369 211.381,330.093 210.123 C 328.979 209.024,327.226 208.164,325.583 207.911 C 325.217 207.854,324.729 207.746,324.500 207.671 C 324.271 207.595,323.483 207.407,322.750 207.252 C 315.442 205.710,314.927 205.420,314.930 202.841 C 314.935 199.610,316.646 199.247,328.599 199.940 L 330.448 200.047 330.557 199.149 C 330.617 198.654,330.713 197.899,330.770 197.470 L 330.874 196.690 330.229 196.523 C 328.055 195.958,318.128 195.696,315.667 196.138 M240.667 196.194 C 238.972 196.432,236.914 197.236,234.583 198.571 C 233.743 199.052,232.239 200.072,232.134 200.231 C 231.892 200.598,231.776 200.112,231.701 198.417 L 231.623 196.667 229.645 196.667 L 227.667 196.667 227.667 209.250 L 227.667 221.833 229.917 221.833 L 232.167 221.833 232.167 212.851 L 232.167 203.868 232.958 203.389 C 233.394 203.125,233.929 202.810,234.148 202.689 C 234.367 202.568,234.817 202.314,235.148 202.126 C 239.626 199.575,243.348 199.174,244.613 201.106 C 245.247 202.073,245.321 203.267,245.327 212.625 L 245.333 221.667 247.583 221.667 L 249.833 221.667 249.832 212.208 C 249.831 207.006,249.760 202.134,249.673 201.381 C 249.188 197.160,246.166 195.420,240.667 196.194 M274.946 196.792 C 274.895 196.952,274.656 197.608,274.415 198.250 C 274.173 198.892,273.902 199.679,273.811 200.000 C 273.647 200.577,272.925 202.604,272.654 203.250 C 272.577 203.433,272.365 204.033,272.183 204.583 C 271.840 205.624,270.289 210.063,270.116 210.500 C 270.062 210.637,269.821 211.350,269.582 212.083 C 269.342 212.817,269.080 213.567,268.999 213.750 C 268.918 213.933,268.535 215.040,268.148 216.208 C 267.242 218.940,267.082 218.977,266.328 216.625 C 266.027 215.685,265.739 214.842,265.689 214.751 C 265.592 214.577,264.537 211.614,263.967 209.917 C 263.782 209.367,263.570 208.767,263.496 208.583 C 263.421 208.400,263.161 207.688,262.917 207.000 C 262.673 206.313,262.408 205.600,262.328 205.417 C 262.248 205.233,262.109 204.821,262.019 204.500 C 261.856 203.915,261.540 203.013,260.414 199.917 C 260.080 199.000,259.698 197.894,259.564 197.458 L 259.320 196.667 256.828 196.667 L 254.336 196.667 254.731 197.708 C 254.948 198.281,255.665 200.175,256.324 201.917 C 256.982 203.658,257.591 205.214,257.677 205.373 C 257.763 205.532,257.833 205.746,257.833 205.848 C 257.833 205.950,257.946 206.288,258.083 206.600 C 258.221 206.912,258.446 207.422,258.583 207.734 C 258.721 208.045,258.833 208.405,258.833 208.534 C 258.833 208.662,258.898 208.838,258.977 208.925 C 259.056 209.012,259.700 210.621,260.407 212.500 C 261.115 214.379,261.755 216.067,261.830 216.250 C 261.904 216.433,262.095 216.958,262.254 217.417 C 262.414 217.875,262.609 218.321,262.689 218.408 C 262.768 218.495,262.833 218.672,262.833 218.800 C 262.833 218.928,262.953 219.307,263.100 219.641 C 264.033 221.768,263.812 221.658,267.200 221.663 L 269.983 221.667 270.385 221.125 C 270.605 220.827,271.480 218.746,272.328 216.500 C 273.175 214.254,273.936 212.248,274.018 212.042 C 274.100 211.835,274.234 211.498,274.315 211.292 C 274.397 211.085,275.269 208.779,276.253 206.167 C 277.237 203.554,278.179 201.106,278.346 200.727 C 278.514 200.347,278.702 199.822,278.765 199.560 C 278.828 199.298,278.937 199.008,279.008 198.917 C 279.130 198.758,279.833 196.775,279.833 196.589 C 279.833 196.311,275.036 196.510,274.946 196.792 M215.167 209.250 L 215.167 221.833 217.417 221.833 L 219.667 221.833 219.667 209.250 L 219.667 196.667 217.417 196.667 L 215.167 196.667 215.167 209.250 M298.320 200.249 C 300.505 201.046,301.438 203.486,300.555 206.095 C 300.001 207.735,299.701 207.805,293.197 207.821 L 287.810 207.833 287.924 206.458 C 288.084 204.535,288.603 202.628,289.151 201.946 C 290.074 200.800,291.093 200.242,292.833 199.931 C 293.772 199.763,297.595 199.985,298.320 200.249 " stroke="none" fill="#fcfcfc" fill-rule="evenodd"></path><path id="path1" d="M26.625 39.125 L 2.833 62.917 2.833 110.709 L 2.833 158.500 14.750 158.500 L 26.667 158.500 26.667 134.667 L 26.667 110.833 50.583 110.833 L 74.500 110.833 74.500 98.917 L 74.500 87.000 86.417 87.000 L 98.333 87.000 98.333 51.167 L 98.333 15.333 74.375 15.333 L 50.416 15.333 26.625 39.125 M145.791 39.125 L 122.000 62.917 122.000 110.709 L 122.000 158.500 133.917 158.500 L 145.833 158.500 145.833 98.917 L 145.833 39.333 181.667 39.333 L 217.500 39.333 217.500 27.333 L 217.500 15.333 193.541 15.333 L 169.583 15.333 145.791 39.125 M256.625 39.125 L 232.833 62.917 232.833 86.917 L 232.833 110.917 256.625 134.709 L 280.417 158.500 304.375 158.500 L 328.333 158.500 328.333 146.583 L 328.333 134.667 340.250 134.667 L 352.167 134.667 352.167 122.667 C 352.167 116.067,352.110 110.667,352.041 110.667 C 351.972 110.667,346.554 116.029,340.000 122.583 L 328.084 134.500 292.459 134.500 L 256.833 134.500 256.833 86.917 L 256.833 39.333 292.475 39.333 L 328.116 39.333 340.034 51.250 C 346.589 57.804,352.000 63.167,352.059 63.167 C 352.118 63.167,352.167 57.767,352.167 51.167 L 352.167 39.167 340.250 39.167 L 328.333 39.167 328.333 27.250 L 328.333 15.333 304.375 15.333 L 280.416 15.333 256.625 39.125 M86.041 51.209 L 74.167 63.084 74.167 74.959 L 74.167 86.833 62.292 86.833 L 50.418 86.833 38.542 98.708 L 26.667 110.582 26.667 74.958 L 26.667 39.333 62.291 39.333 L 97.916 39.333 86.041 51.209 " stroke="none" fill="#d4d404" fill-rule="evenodd"></path></g></svg>