<svg id="svg" version="1.1" xmlns="http://www.w3.org/2000/svg" xmlns:xlink="http://www.w3.org/1999/xlink" width="400" height="213.28125" viewBox="0, 0, 400,213.28125">
<g id="svgg">
<path id="path0" d="M0.040 106.625 C 0.062 165.269,0.100 209.360,0.125 204.606 L 0.170 195.962 32.877 163.322 L 65.583 130.682 96.625 130.674 L 127.667 130.667 127.667 171.917 L 127.667 213.167 129.333 213.167 L 131.000 213.167 131.000 171.917 L 131.000 130.667 226.292 130.667 L 321.583 130.667 290.125 162.125 L 258.667 193.584 258.667 203.375 L 258.667 213.167 260.333 213.167 L 262.000 213.167 262.000 204.111 L 262.000 195.056 293.875 163.201 L 325.750 131.345 325.792 172.173 C 325.815 194.628,325.887 213.000,325.952 213.000 C 326.017 213.000,342.030 197.044,361.537 177.542 L 397.005 142.083 398.419 142.035 L 399.833 141.987 399.875 177.619 C 399.898 197.216,399.936 165.269,399.959 106.625 L 400.000 0.000 362.917 0.000 L 325.834 0.000 325.792 63.625 L 325.750 127.250 228.417 127.250 L 131.083 127.250 131.041 96.248 L 130.999 65.246 154.541 41.711 C 167.489 28.766,182.170 14.086,187.165 9.088 L 196.246 0.000 98.123 0.000 L 0.000 0.000 0.040 106.625 " stroke="none" fill="#d3d32c" fill-rule="evenodd"></path>
<path id="path1" d="M163.625 32.626 L 130.999 65.251 131.041 96.250 L 131.083 127.250 228.417 127.250 L 325.750 127.250 325.792 63.625 L 325.834 0.000 261.042 0.001 L 196.250 0.001 163.625 32.626 M32.875 163.323 L 0.167 195.965 0.167 204.566 L 0.167 213.167 63.917 213.167 L 127.667 213.167 127.667 171.917 L 127.667 130.667 96.625 130.674 L 65.583 130.682 32.875 163.323 M131.000 171.917 L 131.000 213.167 194.833 213.167 L 258.667 213.167 258.667 203.375 L 258.667 193.584 290.125 162.125 L 321.583 130.667 226.292 130.667 L 131.000 130.667 131.000 171.917 M293.875 163.201 L 262.000 195.056 262.000 204.111 L 262.000 213.167 330.917 213.167 L 399.833 213.167 399.833 177.577 L 399.833 141.987 398.419 142.035 L 397.005 142.083 361.537 177.542 C 342.030 197.044,326.017 213.000,325.952 213.000 C 325.887 213.000,325.815 194.628,325.792 172.173 L 325.750 131.345 293.875 163.201 " stroke="none" fill="#6c6c6b" fill-rule="evenodd"></path></g></svg>