<svg id="svg" version="1.1" xmlns="http://www.w3.org/2000/svg" xmlns:xlink="http://www.w3.org/1999/xlink" width="400" height="225" viewBox="0, 0, 400,225"><g id="svgg"><path id="path0" d="M24.375 35.753 L 0.000 60.150 0.000 109.408 L 0.000 158.667 12.250 158.667 L 24.500 158.667 24.500 134.083 L 24.500 109.500 49.000 109.500 L 73.500 109.500 73.500 97.250 L 73.500 85.000 85.750 85.000 L 98.000 85.000 98.000 48.167 L 98.000 11.333 73.375 11.344 L 48.750 11.356 24.375 35.753 M146.792 35.837 L 122.333 60.318 122.333 109.492 L 122.333 158.667 134.667 158.667 L 147.000 158.667 147.000 97.417 L 147.000 36.167 183.750 36.167 L 220.500 36.167 220.500 23.750 L 220.500 11.333 195.875 11.344 L 171.250 11.355 146.792 35.837 M260.791 35.792 L 236.333 60.250 236.333 84.917 L 236.333 109.584 260.875 134.125 L 285.417 158.667 309.959 158.667 L 334.500 158.667 334.500 146.417 L 334.500 134.167 346.750 134.167 L 359.000 134.167 359.000 121.709 L 359.000 109.251 346.708 121.542 L 334.416 133.833 297.708 133.833 L 261.000 133.833 261.000 85.000 L 261.000 36.167 297.709 36.167 L 334.418 36.167 346.583 48.333 C 353.275 55.025,358.806 60.500,358.875 60.500 C 358.944 60.500,359.000 54.950,359.000 48.167 L 359.000 35.833 346.750 35.833 L 334.500 35.833 334.500 23.583 L 334.500 11.333 309.875 11.333 L 285.250 11.333 260.791 35.792 M85.458 48.292 L 73.333 60.418 73.333 72.625 L 73.333 84.833 61.125 84.833 L 48.918 84.833 36.709 97.041 L 24.500 109.249 24.500 72.708 L 24.500 36.167 61.041 36.167 L 97.582 36.167 85.458 48.292 " stroke="none" fill="#fcfcfc" fill-rule="evenodd"></path><path id="path1" d="M346.333 192.073 C 346.333 194.131,346.275 195.850,346.204 195.894 C 346.132 195.938,345.082 196.028,343.870 196.094 L 341.667 196.214 341.667 197.940 L 341.667 199.667 344.000 199.667 L 346.333 199.667 346.333 208.306 C 346.333 218.496,346.392 218.882,348.197 220.613 C 349.733 222.087,353.555 222.587,357.560 221.839 L 358.869 221.594 358.757 220.422 C 358.695 219.777,358.570 218.950,358.479 218.583 L 358.315 217.917 355.777 217.917 C 350.857 217.917,351.098 218.426,351.033 207.875 L 350.983 199.667 355.075 199.667 L 359.167 199.667 359.167 197.750 L 359.167 195.833 355.083 195.833 L 351.000 195.833 351.000 192.083 L 351.000 188.333 348.667 188.333 L 346.333 188.333 346.333 192.073 M297.167 195.494 C 290.664 196.322,288.000 200.186,288.000 208.789 C 288.000 218.554,291.582 222.500,300.445 222.500 C 302.542 222.500,306.625 222.071,308.250 221.679 C 308.617 221.591,309.276 221.433,309.716 221.328 L 310.516 221.136 310.413 220.360 C 310.357 219.933,310.228 219.187,310.128 218.703 L 309.945 217.823 308.931 217.922 C 308.373 217.977,307.354 218.100,306.667 218.197 C 304.324 218.526,298.566 218.459,297.417 218.090 C 294.896 217.281,293.846 215.904,293.176 212.533 C 293.079 212.048,293.000 211.541,293.000 211.408 C 293.000 211.201,293.958 211.167,299.711 211.167 C 306.939 211.167,307.414 211.115,308.667 210.194 C 311.756 207.920,311.811 200.648,308.761 197.780 C 306.786 195.923,301.689 194.919,297.167 195.494 M322.417 195.430 C 317.613 196.114,316.167 197.731,316.167 202.417 C 316.167 207.369,317.705 208.888,324.083 210.236 C 324.817 210.391,325.679 210.586,326.000 210.671 C 326.321 210.755,327.146 210.944,327.833 211.091 C 332.271 212.039,333.338 212.772,333.330 214.867 C 333.317 217.961,332.038 218.387,323.010 218.305 L 317.039 218.250 316.852 219.583 C 316.558 221.689,316.526 221.596,317.625 221.809 C 320.090 222.286,327.501 222.482,330.917 222.161 C 336.013 221.681,337.836 219.800,337.832 215.026 C 337.827 210.135,336.310 208.689,329.667 207.242 C 328.979 207.092,327.629 206.789,326.667 206.569 C 325.704 206.348,324.542 206.082,324.083 205.977 C 321.481 205.381,320.749 204.617,320.752 202.500 C 320.757 199.423,320.776 199.417,329.745 199.417 L 336.740 199.417 336.850 198.750 C 336.911 198.383,336.994 197.652,337.035 197.124 L 337.111 196.165 336.514 196.021 C 334.740 195.594,324.330 195.158,322.417 195.430 M243.000 195.979 C 241.065 196.540,239.102 197.485,236.980 198.877 L 235.376 199.929 235.274 198.717 C 235.217 198.050,235.123 197.203,235.064 196.835 L 234.957 196.167 232.958 196.167 L 230.958 196.167 231.063 196.688 C 231.120 196.974,231.167 202.786,231.167 209.604 L 231.167 222.000 233.500 222.000 L 235.833 222.000 235.833 212.696 L 235.833 203.393 237.375 202.507 C 239.604 201.226,241.092 200.491,242.833 199.811 C 243.894 199.397,247.135 199.502,247.794 199.971 C 249.116 200.914,249.167 201.375,249.167 212.508 L 249.167 222.000 251.508 222.000 L 253.849 222.000 253.800 211.125 C 253.759 202.264,253.707 200.157,253.518 199.750 C 253.390 199.475,253.154 198.950,252.993 198.583 C 251.769 195.801,247.476 194.682,243.000 195.979 M279.115 197.792 C 278.489 199.629,278.122 200.677,277.085 203.583 C 276.758 204.500,276.226 206.037,275.902 207.000 C 275.579 207.963,275.246 208.900,275.163 209.083 C 275.079 209.267,274.861 209.867,274.678 210.417 C 274.495 210.967,273.884 212.729,273.322 214.333 C 272.760 215.938,272.216 217.531,272.115 217.875 C 271.784 219.001,271.442 218.702,270.778 216.708 C 270.450 215.723,269.911 214.167,269.579 213.250 C 269.247 212.333,268.875 211.283,268.753 210.917 C 268.375 209.781,267.490 207.267,267.345 206.917 C 267.147 206.441,266.422 204.425,266.026 203.250 C 265.840 202.700,265.377 201.387,264.996 200.333 C 264.615 199.279,264.141 197.911,263.943 197.293 L 263.583 196.170 261.053 196.168 L 258.523 196.167 258.660 196.625 C 258.809 197.120,259.088 197.883,259.316 198.417 C 259.394 198.600,259.740 199.500,260.085 200.417 C 260.429 201.333,260.808 202.308,260.926 202.583 C 261.044 202.858,261.455 203.908,261.839 204.917 C 262.222 205.925,262.595 206.900,262.667 207.083 C 262.739 207.267,263.491 209.254,264.339 211.500 C 265.187 213.746,265.945 215.655,266.023 215.742 C 266.102 215.829,266.167 216.005,266.167 216.133 C 266.167 216.261,266.287 216.640,266.434 216.975 C 266.734 217.660,266.743 217.683,267.527 219.748 C 268.344 221.900,268.523 222.000,271.541 222.000 C 274.188 222.000,274.815 221.820,275.218 220.945 C 275.351 220.655,276.603 217.417,277.998 213.750 C 279.394 210.083,280.613 206.896,280.707 206.667 C 280.924 206.138,280.878 206.259,282.500 201.917 C 284.045 197.779,284.035 197.806,284.400 196.975 C 284.836 195.980,284.881 196.000,282.196 196.000 L 279.726 196.000 279.115 197.792 M218.167 209.083 L 218.167 222.000 220.500 222.000 L 222.833 222.000 222.833 209.083 L 222.833 196.167 220.500 196.167 L 218.167 196.167 218.167 209.083 M301.929 199.498 C 305.171 199.840,306.250 200.944,306.250 203.917 C 306.250 207.429,306.099 207.500,298.646 207.500 L 293.000 207.500 293.003 206.375 C 293.012 202.280,294.809 199.913,298.207 199.517 C 299.902 199.320,300.221 199.318,301.929 199.498 " stroke="none" fill="#6c6c6c" fill-rule="evenodd"></path></g></svg>